<?xml version="1.0"?><svg xmlns="http://www.w3.org/2000/svg"  viewBox="0 0 30 30" width="30px" height="30px">    <path d="M 24.822266 3.1621094 C 22.969276 3.4822837 22.200069 4.2343647 21.691406 5.0371094 C 19.74111 5.1264736 18.221605 5.4985056 17.371094 5.7851562 C 17.194094 5.4391562 17.044797 5.0252812 16.966797 4.7382812 C 16.847797 4.3032813 16.451 4 16 4 C 14.219 4 12.934234 4.9795938 12.240234 5.6835938 C 11.983234 5.5005938 11.739422 5.2535625 11.732422 4.9765625 C 11.725422 4.6775625 11.584609 4.3988438 11.349609 4.2148438 C 11.114609 4.0308438 10.810531 3.9634375 10.519531 4.0234375 C 8.9865313 4.3564375 7.0097656 6.6060625 7.0097656 8.5390625 C 7.0097656 9.4750083 7.3578404 10.35909 7.7148438 11.03125 C 7.5174351 11.181727 7.3188581 11.327496 7.125 11.5 C 6.465 12.09 6 13 6 13 C 6.065 13.55 7 14 7 14 L 7 18 L 3.5 18 C 3.36 18 3 18 3 18.5 L 3 19 C 3 20.5 3.855 22 4 22 L 4.5 22 C 4.5 22 4.8250781 23 4.8300781 23 C 7.0150781 24 12 24 12 24 L 12 26 L 21 26 L 21 23 C 21 23 23 20.125 23 17 C 23 16.14 22.858797 15.282891 22.591797 14.462891 C 21.871797 14.719891 20.772734 14.715047 20.552734 13.748047 C 20.204734 12.218047 22.729781 12.703156 23.550781 9.4101562 C 24.044781 7.4291562 23.776922 5.5989531 25.294922 4.1269531 C 25.695922 3.7379531 25.372266 3.0671094 24.822266 3.1621094 z M 15.316406 6.0878906 C 15.525406 6.6088906 15.849016 7.258125 16.291016 7.703125 C 16.589016 8.004125 17.046641 8.0843437 17.431641 7.9023438 C 17.445757 7.8948702 18.486094 7.4430446 20.195312 7.1835938 C 19.054262 8.0501823 17.763208 8.6036008 16.917969 9.2265625 C 16.314969 9.0875625 15.68 9 15 9 C 12.959598 9 11.126321 9.2177722 9.4316406 9.9960938 C 9.2060166 9.5486457 9.0097656 9.0209595 9.0097656 8.5390625 C 9.0097656 7.8790625 9.6180312 6.9853594 10.207031 6.4433594 C 10.730031 7.2013594 11.575344 7.6798125 12.152344 7.8828125 C 12.577344 8.0318125 13.054547 7.8700469 13.310547 7.4980469 C 13.319547 7.4850469 14.077406 6.4058906 15.316406 6.0878906 z M 25.849609 8.8007812 C 25.773609 9.3237812 25.691828 9.8611563 25.548828 10.410156 C 25.502828 10.584156 25.428281 10.747063 25.363281 10.914062 C 25.519281 11.074063 25.660531 11.25175 25.769531 11.46875 C 24.537531 12.26275 24.073781 13.613594 24.050781 13.683594 C 23.917781 14.083594 24.050813 14.527109 24.382812 14.787109 C 24.394813 14.797109 25.361875 15.567063 25.796875 16.664062 C 25.158875 16.830063 24.383531 17.158453 23.769531 17.814453 C 23.558531 18.040453 23.464672 18.352203 23.513672 18.658203 C 23.562672 18.964203 23.752438 19.229906 24.023438 19.378906 C 24.039437 19.387906 25.298828 20.090422 25.798828 21.357422 L 24 21.357422 C 23.61 21.357422 23.25775 21.586406 23.09375 21.941406 C 22.92975 22.295406 22.989187 22.714719 23.242188 23.011719 C 23.250187 23.021719 24 23.911 24 25 C 24 25.553 24.448 26 25 26 C 25.552 26 26 25.553 26 25 C 26 24.389 25.873172 23.832422 25.701172 23.357422 L 27 23.357422 C 27.268 23.357422 27.522938 23.250547 27.710938 23.060547 C 27.898937 22.870547 28.003 22.61175 28 22.34375 C 27.979 20.63175 27.09125 19.388422 26.28125 18.607422 C 26.67325 18.505422 26.992141 18.5 26.994141 18.5 C 27.272141 18.456 27.534609 18.3895 27.724609 18.1875 C 27.914609 17.9875 28.014047 17.718359 27.998047 17.443359 C 27.904047 15.792359 26.908422 14.48525 26.232422 13.78125 C 26.445422 13.46425 26.785531 13.097891 27.269531 12.962891 C 27.776531 12.819891 28.087516 12.309922 27.978516 11.794922 C 27.655516 10.251922 26.815609 9.3447812 25.849609 8.8007812 z M 10.423828 13.869141 C 11.392822 13.765869 12.5 14.75 12.5 17 C 12.5 19 11.771484 19.5 11.771484 19.5 L 9 19.5 L 9 18.392578 L 9 16.5 L 9 16 C 9 14.6875 9.670166 13.949463 10.423828 13.869141 z M 9 16.5 C 9 16.722 9.0095312 16.919609 9.0195312 17.099609 C 9.0195312 17.099609 9.0614531 18 9.9394531 18 C 10.524453 18 11 17.328 11 16.5 C 11 15.672 10.524453 15 9.9394531 15 C 9.1244531 15 9.0303906 15.810672 9.0253906 15.888672 C 9.0103906 16.074672 9 16.278 9 16.5 z"/></svg>